<?xml version="1.0" encoding="utf-8"?>
<!-- Generator: Adobe Illustrator 25.4.1, SVG Export Plug-In . SVG Version: 6.00 Build 0)  -->
<svg version="1.1"
	 id="Capa_1" xmlns:krita="http://krita.org/namespaces/svg/krita" xmlns:sodipodi="http://sodipodi.sourceforge.net/DTD/sodipodi-0.dtd"
	 xmlns="http://www.w3.org/2000/svg" xmlns:xlink="http://www.w3.org/1999/xlink" x="0px" y="0px" viewBox="0 0 4939.8 1146.2"
	 style="enable-background:new 0 0 4939.8 1146.2;" xml:space="preserve">
<path id="shape0" sodipodi:nodetypes="ccccccccc" d="M222.8,590.3c40,3.7,54.9,0.6,73.1-2.2c135.9-43.8,166.2-112.5,375.4-112.5
	c102.5,0,195.5,61.2,272.8,162.4c83.9,109.8,68.4,105.8,125.2,161.4c54.8,53.8,127.1,76.2,245.3,61.7
	c-67.4,93.5-179,151.4-415.2,129.2c-174.8,16.7-324.6,22.2-439.1,12c-143.1-12.9-198.6-143.1-251.4-188.1"/>
<path id="shape1" sodipodi:nodetypes="cccccccccccccccccccccccc" d="M395.1,25.6C337.8-13.4,271.9,2.9,259,6.4
	c-35.4,13.4-88.3,38.7-137.4,87C-14,226.4-1.2,416.8,1.7,460.3c15,225,174.5,361.8,207.3,388.8l52.1-258.6
	c-14.7-1.4-29.1-5.2-42.5-11.3C135,540.7,121.9,421.6,119,395.4c-4.2-38.4-12.3-111.9,35.9-177.3c10.9-14.8,56.4-76.5,119.5-77
	c63.9-0.5,96,62.2,145.4,45.1c19-6.6,32.7-22.2,38.5-37.2C475.1,105.6,432.3,50.8,395.1,25.6z M328.8,96.4
	c-10.7,0-19.4-8.7-19.4-19.4s8.7-19.4,19.4-19.4c10.7,0,19.4,8.7,19.4,19.4l0,0C348.2,87.7,339.6,96.4,328.8,96.4z M208.9,849.1
	l22,12L281.1,592l-20.2-1.3"/>
<path id="shape03" sodipodi:nodetypes="cccccc" d="M440.2,909.1L68.4,680.9c0,0,160.5,232.4,232.4,425.3c13.2,32.3,23.8,40,39.3,40
	c7.9,0,13.7-0.1,21.6,0c12.4,0.2,24.4-2.1,32.4-38.8"/>
<path id="shape03_00000110455852777094109300000003039119627540818873_" sodipodi:nodetypes="cccccc" d="M560.2,902.5L386,840
	c0,0,35.7,206.5,64.4,276.7c5.8,14.1,12.7,29.5,28.2,29.5c7.9,0,13.7-0.1,21.6,0c12.4,0.2,24.4-2.1,32.4-38.8"/>
<path id="shape03_00000133488188514681333690000004561536939449256360_" sodipodi:nodetypes="cccccc" d="M971.3,909.1l-186.2-60
	c0,0,29.2,197.4,57.9,267.6c5.8,14.1,12.7,29.5,28.2,29.5c7.9,0,13.7-0.1,21.6,0c12.4,0.2,24.4-2.1,32.4-38.8"/>
<path id="shape03_00000064316924521584423890000014662962827480682119_" sodipodi:nodetypes="cccccc" d="M825.2,904.1l-163.3-55
	c0,0,24.1,191.7,49.9,267.6c5.8,14.1,12.7,29.5,28.2,29.5c7.9,0,13.7-0.1,21.6,0c12.4,0.2,24.4-2.1,32.4-38.8"/>
<g>
	<g>
		<path d="M1616.3,850.1c-39.8,0-76.6-6.4-110.2-19.1c-33.6-12.7-62.9-30.7-87.8-54c-25-23.3-44.4-51-58.3-83.2
			c-13.9-32.2-20.9-67.4-20.9-105.8c0-38.4,7-73.7,20.9-105.8c13.9-32.2,33.4-59.9,58.3-83.2c25-23.3,54.2-41.3,87.8-54
			c33.6-12.7,70.3-19.1,110.2-19.1c46.6,0,88.2,8,124.9,24.1c36.7,16.1,67.3,39.7,91.8,70.9l-90.7,82.1
			c-16.3-19.2-34.3-33.8-54-43.9c-19.7-10.1-41.3-15.1-64.8-15.1c-20.6,0-39.6,3.4-56.9,10.1c-17.3,6.7-32,16.4-44.3,29.2
			c-12.2,12.7-21.8,28-28.8,45.7c-7,17.8-10.4,37.4-10.4,59c0,21.6,3.5,41.3,10.4,59c7,17.8,16.6,33,28.8,45.7
			c12.2,12.7,27,22.4,44.3,29.2c17.3,6.7,36.2,10.1,56.9,10.1c23.5,0,45.1-5,64.8-15.1c19.7-10.1,37.7-25,54-44.6l90.7,82.1
			c-24.5,31.2-55.1,55-91.8,71.3C1704.5,841.9,1662.8,850.1,1616.3,850.1z"/>
		<path d="M2085.7,846.5c-42.7,0-80.6-8.6-113.8-25.9c-33.1-17.3-59.2-41.2-78.1-71.6c-19-30.5-28.4-65.2-28.4-104
			c0-39.4,9.5-74.3,28.4-104.8c19-30.5,45-54.4,78.1-71.6s71-25.9,113.8-25.9c42.7,0,80.8,8.6,114.1,25.9
			c33.4,17.3,59.5,41.2,78.5,71.6c19,30.5,28.4,65.4,28.4,104.8c0,38.9-9.5,73.6-28.4,104c-19,30.5-45.1,54.4-78.5,71.6
			C2166.5,837.8,2128.4,846.5,2085.7,846.5z M2085.7,737.8c15.4,0,29.2-3.6,41.4-10.8s22.1-17.9,29.5-32
			c7.4-14.2,11.2-31.1,11.2-50.8c0-20.2-3.7-37-11.2-50.4c-7.4-13.4-17.3-23.8-29.5-31c-12.2-7.2-26-10.8-41.4-10.8
			c-15.4,0-29.2,3.6-41.4,10.8c-12.2,7.2-22.1,17.5-29.5,31c-7.4,13.4-11.2,30.2-11.2,50.4c0,19.7,3.7,36.6,11.2,50.8
			c7.4,14.2,17.3,24.8,29.5,32C2056.6,734.2,2070.3,737.8,2085.7,737.8z"/>
		<path d="M2539.3,846.5c-35,0-67.2-8.3-96.5-24.8c-29.3-16.6-52.4-39.8-69.5-69.8c-17-30-25.6-65.6-25.6-106.9
			c0-41.8,8.5-77.6,25.6-107.6c17-30,40.2-53.3,69.5-69.8c29.3-16.6,61.4-24.8,96.5-24.8c33.1,0,61.4,7.3,85,22
			c23.5,14.6,41.3,36.8,53.3,66.6c12,29.8,18,67.7,18,113.8s-5.6,84-16.9,113.8c-11.3,29.8-28.6,51.8-51.8,66.2
			C2603.5,839.3,2574.3,846.5,2539.3,846.5z M2568.1,737.8c15.4,0,29.2-3.6,41.4-10.8s22-17.9,29.2-32c7.2-14.2,10.8-30.8,10.8-50
			c0-20.6-3.6-37.7-10.8-51.1c-7.2-13.4-16.9-23.8-29.2-31c-12.2-7.2-26-10.8-41.4-10.8c-15.8,0-29.9,3.6-42.1,10.8
			c-12.2,7.2-22,17.5-29.2,31c-7.2,13.4-10.8,30.5-10.8,51.1c0,19.2,3.6,35.9,10.8,50c7.2,14.2,16.9,24.8,29.2,32
			C2538.2,734.2,2552.3,737.8,2568.1,737.8z M2653.8,840v-67l0.7-128.9l-7.2-128.9V305.8h136.8V840H2653.8z"/>
		<path d="M3077.1,846.5c-46.6,0-87-8.8-121.3-26.3c-34.3-17.5-61-41.5-79.9-72c-19-30.5-28.4-64.9-28.4-103.3
			c0-39.4,9.2-74.3,27.7-104.8c18.5-30.5,43.9-54.4,76.3-71.6c32.4-17.3,69.2-25.9,110.5-25.9c38.4,0,73.3,8,104.8,24.1
			c31.4,16.1,56.6,39.1,75.6,69.1c19,30,28.4,66.6,28.4,109.8c0,4.8-0.2,10.3-0.7,16.6c-0.5,6.2-1,12-1.4,17.3h-308.9v-72h236.2
			l-51.8,20.2c0.5-17.3-2.8-32.5-9.7-45.7c-7-13.2-16.4-23.4-28.4-30.6c-12-7.2-26.2-10.8-42.5-10.8c-16.8,0-31.4,3.6-43.9,10.8
			c-12.5,7.2-22,17.4-28.4,30.6c-6.5,13.2-9.7,28.7-9.7,46.4v20.9c0,19.2,4,35.8,11.9,49.7c7.9,13.9,19.3,24.6,34.2,32
			c14.9,7.4,32.6,11.2,53.3,11.2c19.7,0,36.2-2.8,49.7-8.3c13.4-5.5,26.9-14,40.3-25.6l71.3,75.6c-18.2,20.2-41,35.6-68.4,46.4
			C3146.3,841.1,3114.1,846.5,3077.1,846.5z"/>
		<path d="M3476,846.5c-33.1,0-65.4-3.8-96.8-11.5c-31.4-7.7-56.8-17.3-76-28.8l40.3-93.6c18.7,11,40.3,19.9,64.8,26.6
			c24.5,6.7,48.5,10.1,72,10.1c23,0,39-2.5,47.9-7.6c8.9-5,13.3-11.9,13.3-20.5c0-7.2-4.1-12.7-12.2-16.6
			c-8.2-3.8-19.2-6.6-33.1-8.3c-13.9-1.7-28.9-3.6-45-5.8c-16.1-2.2-32.5-5.5-49.3-10.1c-16.8-4.6-32-10.9-45.7-19.1
			c-13.7-8.2-24.6-19.4-32.8-33.8c-8.2-14.4-12.2-32.6-12.2-54.7c0-25,7.3-47.2,22-66.6c14.6-19.4,36-34.9,64.1-46.4
			s62.8-17.3,104-17.3c27.4,0,55.1,2.9,83.2,8.6c28.1,5.8,51.7,14.2,70.9,25.2l-41,93.6c-19.2-11.5-38.4-19.2-57.6-23
			c-19.2-3.8-37.2-5.8-54-5.8c-23,0-39.5,2.5-49.3,7.6c-9.8,5-14.8,11.4-14.8,19.1c0,7.7,4.3,13.6,13,17.6
			c8.6,4.1,19.7,7.2,33.1,9.4c13.4,2.2,28.4,4.3,45,6.5c16.6,2.2,33,5.4,49.3,9.7c16.3,4.3,31.2,10.7,44.6,19.1
			c13.4,8.4,24.4,19.7,32.8,33.8c8.4,14.2,12.6,32.5,12.6,55.1c0,23.5-7.2,44.9-21.6,64.1c-14.4,19.2-36,34.6-64.8,46.1
			C3553.8,840.7,3518.3,846.5,3476,846.5z"/>
		<path d="M3851.1,846.5c-30.7,0-57-5.3-78.8-15.8c-21.8-10.6-38.4-25-49.7-43.2c-11.3-18.2-16.9-38.4-16.9-60.5
			c0-24,6.1-44.9,18.4-62.6c12.2-17.8,31.2-31.3,56.9-40.7c25.7-9.4,58.4-14,98.3-14h92.2v72h-73.4c-22.1,0-37.6,3.4-46.4,10.1
			c-8.9,6.7-13.3,16.3-13.3,28.8c0,11.5,4.6,21,13.7,28.4c9.1,7.4,21.6,11.2,37.4,11.2c15.4,0,29.2-3.7,41.4-11.2
			c12.2-7.4,21-18.8,26.3-34.2l18.7,50.4c-7.2,26.9-21.2,47.2-42.1,60.8C3912.7,839.6,3885.2,846.5,3851.1,846.5z M3966.3,840v-72.7
			l-9.4-18V615.4c0-21.6-6.6-38.3-19.8-50c-13.2-11.8-34.2-17.6-63-17.6c-18.7,0-37.8,3.1-57.2,9.4c-19.4,6.2-35.9,14.2-49.3,23.8
			l-45.4-92.2c22.1-14.4,48.6-25.7,79.6-33.8c31-8.2,61.8-12.2,92.5-12.2c63.4,0,112.4,14.6,147.2,43.9
			c34.8,29.3,52.2,74.9,52.2,136.8V840H3966.3z"/>
		<path d="M4344.3,846.5c-31.7,0-60.1-6.2-85.3-18.7c-25.2-12.5-44.9-32-59-58.7c-14.2-26.6-21.2-60.6-21.2-101.9V449h136.8v195.8
			c0,30.2,5.6,52,16.9,65.2c11.3,13.2,27.2,19.8,47.9,19.8c13.4,0,25.8-3.1,37.1-9.4c11.3-6.2,20-16.2,26.3-29.9
			c6.2-13.7,9.4-31.1,9.4-52.2V449h136.8v391h-129.6V729.8l25.2,31c-13.9,28.8-33.5,50.3-58.7,64.4
			C4401.6,839.4,4374.1,846.5,4344.3,846.5z"/>
		<path d="M4678.4,840V449h131v114.5l-20.2-32.4c12-29.3,30.8-51.4,56.5-66.2c25.7-14.9,57-22.3,94-22.3v123.8
			c-6.2-1-11.8-1.6-16.6-1.8c-4.8-0.2-9.6-0.4-14.4-0.4c-27.8,0-50.4,7.6-67.7,22.7c-17.3,15.1-25.9,39.7-25.9,73.8V840H4678.4z"/>
	</g>
</g>
</svg>
