<!--?xml version="1.0" standalone="no"?-->
              <svg id="sw-js-blob-svg" viewBox="0 0 100 100" xmlns="http://www.w3.org/2000/svg" version="1.1">
                    <defs> 
                        <linearGradient id="sw-gradient" x1="0" x2="1" y1="1" y2="0">
                            <stop id="stop1" stop-color="rgba(0, 0, 255, 1)" offset="0%"></stop>
                            <stop id="stop2" stop-color="rgba(255, 125, 0, 1)" offset="100%"></stop>
                        </linearGradient>
                    </defs>
                <path fill="url(#sw-gradient)" d="M19.7,-33C26.5,-30.2,33.7,-26.9,37,-21.3C40.3,-15.7,39.8,-7.9,39.5,-0.1C39.3,7.6,39.4,15.2,36.3,21.2C33.2,27.2,27,31.5,20.4,35.8C13.8,40.1,6.9,44.4,-0.6,45.4C-8,46.4,-16.1,44,-23,39.9C-29.9,35.8,-35.7,29.9,-39,22.9C-42.3,16,-43.2,8,-41.7,0.8C-40.3,-6.3,-36.6,-12.6,-32.7,-18.7C-28.9,-24.7,-24.9,-30.4,-19.4,-33.9C-13.9,-37.4,-7,-38.7,-0.3,-38.3C6.5,-37.8,12.9,-35.7,19.7,-33Z" width="100%" height="100%" transform="translate(50 50)" stroke-width="0" style="transition: all 0.3s ease 0s;"></path>
              </svg>