<!--?xml version="1.0" standalone="no"?-->              <svg id="sw-js-blob-svg" viewBox="0 0 100 100" xmlns="http://www.w3.org/2000/svg">                    <defs>                         <linearGradient id="sw-gradient" x1="0" x2="1" y1="1" y2="0">                            <stop id="stop1" stop-color="rgba(42, 210, 80, 1)" offset="0%"></stop>                            <stop id="stop2" stop-color="rgba(253, 126, 20, 1)" offset="100%"></stop>                        </linearGradient>                    </defs>                <path fill="url(#sw-gradient)" d="M20.3,-29.4C24.7,-24.8,25.3,-16.6,28.6,-8.8C31.8,-0.9,37.7,6.6,36.9,12.9C36.1,19.2,28.7,24.3,21.5,30.2C14.2,36.1,7.1,42.9,0.3,42.5C-6.5,42.1,-13,34.5,-20.4,28.6C-27.8,22.7,-36,18.6,-40.6,11.5C-45.1,4.5,-46,-5.4,-41.5,-11.7C-36.9,-18,-27,-20.7,-19.2,-24.2C-11.4,-27.7,-5.7,-31.9,1.2,-33.5C8,-35.1,16,-34.1,20.3,-29.4Z" width="100%" height="100%" transform="translate(50 50)" stroke-width="0" style="transition: all 0.3s ease 0s;"></path>              </svg>